<mxfile host="app.diagrams.net" agent="Mozilla/5.0 (Windows NT 10.0; Win64; x64) AppleWebKit/537.36 (KHTML, like Gecko) Chrome/131.0.0.0 Safari/537.36 Edg/131.0.0.0" version="26.0.5">
  <diagram name="Page-1" id="prnPikIC-RcoTeM4NvZb">
    <mxGraphModel dx="618" dy="531" grid="1" gridSize="10" guides="1" tooltips="1" connect="1" arrows="1" fold="1" page="1" pageScale="1" pageWidth="827" pageHeight="1169" math="0" shadow="0">
      <root>
        <mxCell id="0" />
        <mxCell id="1" parent="0" />
        <mxCell id="UGmz4RKePdPoEFrXLLEa-2" value="Employe" style="swimlane;fontStyle=1;align=center;verticalAlign=middle;childLayout=stackLayout;horizontal=1;startSize=29;horizontalStack=0;resizeParent=1;resizeParentMax=0;resizeLast=0;collapsible=0;marginBottom=0;html=1;whiteSpace=wrap;" vertex="1" parent="1">
          <mxGeometry x="290" y="260" width="140" height="104" as="geometry" />
        </mxCell>
        <mxCell id="UGmz4RKePdPoEFrXLLEa-13" value="numeroEmplyoe" style="text;html=1;strokeColor=none;fillColor=none;align=left;verticalAlign=middle;spacingLeft=4;spacingRight=4;overflow=hidden;rotatable=0;points=[[0,0.5],[1,0.5]];portConstraint=eastwest;whiteSpace=wrap;" vertex="1" parent="UGmz4RKePdPoEFrXLLEa-2">
          <mxGeometry y="29" width="140" height="25" as="geometry" />
        </mxCell>
        <mxCell id="UGmz4RKePdPoEFrXLLEa-4" value="fonction" style="text;html=1;strokeColor=none;fillColor=none;align=left;verticalAlign=middle;spacingLeft=4;spacingRight=4;overflow=hidden;rotatable=0;points=[[0,0.5],[1,0.5]];portConstraint=eastwest;whiteSpace=wrap;" vertex="1" parent="UGmz4RKePdPoEFrXLLEa-2">
          <mxGeometry y="54" width="140" height="25" as="geometry" />
        </mxCell>
        <mxCell id="UGmz4RKePdPoEFrXLLEa-14" value="Salaire" style="text;html=1;strokeColor=none;fillColor=none;align=left;verticalAlign=middle;spacingLeft=4;spacingRight=4;overflow=hidden;rotatable=0;points=[[0,0.5],[1,0.5]];portConstraint=eastwest;whiteSpace=wrap;" vertex="1" parent="UGmz4RKePdPoEFrXLLEa-2">
          <mxGeometry y="79" width="140" height="25" as="geometry" />
        </mxCell>
        <mxCell id="UGmz4RKePdPoEFrXLLEa-16" style="edgeStyle=orthogonalEdgeStyle;rounded=0;orthogonalLoop=1;jettySize=auto;html=1;exitX=0.5;exitY=0;exitDx=0;exitDy=0;" edge="1" parent="1" source="UGmz4RKePdPoEFrXLLEa-5" target="UGmz4RKePdPoEFrXLLEa-8">
          <mxGeometry relative="1" as="geometry" />
        </mxCell>
        <mxCell id="UGmz4RKePdPoEFrXLLEa-5" value="etudiant" style="swimlane;fontStyle=1;align=center;verticalAlign=middle;childLayout=stackLayout;horizontal=1;startSize=29;horizontalStack=0;resizeParent=1;resizeParentMax=0;resizeLast=0;collapsible=0;marginBottom=0;html=1;whiteSpace=wrap;" vertex="1" parent="1">
          <mxGeometry x="140" y="260" width="140" height="79" as="geometry" />
        </mxCell>
        <mxCell id="UGmz4RKePdPoEFrXLLEa-12" value="Sinecrire" style="text;html=1;strokeColor=none;fillColor=none;align=left;verticalAlign=middle;spacingLeft=4;spacingRight=4;overflow=hidden;rotatable=0;points=[[0,0.5],[1,0.5]];portConstraint=eastwest;whiteSpace=wrap;" vertex="1" parent="UGmz4RKePdPoEFrXLLEa-5">
          <mxGeometry y="29" width="140" height="25" as="geometry" />
        </mxCell>
        <mxCell id="UGmz4RKePdPoEFrXLLEa-7" value="numeroEtudiant" style="text;html=1;strokeColor=none;fillColor=none;align=left;verticalAlign=middle;spacingLeft=4;spacingRight=4;overflow=hidden;rotatable=0;points=[[0,0.5],[1,0.5]];portConstraint=eastwest;whiteSpace=wrap;" vertex="1" parent="UGmz4RKePdPoEFrXLLEa-5">
          <mxGeometry y="54" width="140" height="25" as="geometry" />
        </mxCell>
        <mxCell id="UGmz4RKePdPoEFrXLLEa-8" value="Personne" style="swimlane;fontStyle=1;align=center;verticalAlign=middle;childLayout=stackLayout;horizontal=1;startSize=29;horizontalStack=0;resizeParent=1;resizeParentMax=0;resizeLast=0;collapsible=0;marginBottom=0;html=1;whiteSpace=wrap;" vertex="1" parent="1">
          <mxGeometry x="210" y="100" width="140" height="79" as="geometry" />
        </mxCell>
        <mxCell id="UGmz4RKePdPoEFrXLLEa-10" value="prenom" style="text;html=1;strokeColor=none;fillColor=none;align=left;verticalAlign=middle;spacingLeft=4;spacingRight=4;overflow=hidden;rotatable=0;points=[[0,0.5],[1,0.5]];portConstraint=eastwest;whiteSpace=wrap;" vertex="1" parent="UGmz4RKePdPoEFrXLLEa-8">
          <mxGeometry y="29" width="140" height="25" as="geometry" />
        </mxCell>
        <mxCell id="UGmz4RKePdPoEFrXLLEa-11" value="nom" style="text;html=1;strokeColor=none;fillColor=none;align=left;verticalAlign=middle;spacingLeft=4;spacingRight=4;overflow=hidden;rotatable=0;points=[[0,0.5],[1,0.5]];portConstraint=eastwest;whiteSpace=wrap;" vertex="1" parent="UGmz4RKePdPoEFrXLLEa-8">
          <mxGeometry y="54" width="140" height="25" as="geometry" />
        </mxCell>
        <mxCell id="UGmz4RKePdPoEFrXLLEa-15" style="edgeStyle=orthogonalEdgeStyle;rounded=0;orthogonalLoop=1;jettySize=auto;html=1;exitX=0.5;exitY=0;exitDx=0;exitDy=0;" edge="1" parent="1" source="UGmz4RKePdPoEFrXLLEa-2" target="UGmz4RKePdPoEFrXLLEa-8">
          <mxGeometry relative="1" as="geometry" />
        </mxCell>
        <mxCell id="UGmz4RKePdPoEFrXLLEa-17" value="Window" style="swimlane;fontStyle=1;align=center;verticalAlign=middle;childLayout=stackLayout;horizontal=1;startSize=29;horizontalStack=0;resizeParent=1;resizeParentMax=0;resizeLast=0;collapsible=0;marginBottom=0;html=1;whiteSpace=wrap;" vertex="1" parent="1">
          <mxGeometry x="490" y="100" width="140" height="105" as="geometry" />
        </mxCell>
        <mxCell id="UGmz4RKePdPoEFrXLLEa-18" value="scrolbar: slider" style="text;html=1;strokeColor=none;fillColor=none;align=left;verticalAlign=middle;spacingLeft=4;spacingRight=4;overflow=hidden;rotatable=0;points=[[0,0.5],[1,0.5]];portConstraint=eastwest;whiteSpace=wrap;" vertex="1" parent="UGmz4RKePdPoEFrXLLEa-17">
          <mxGeometry y="29" width="140" height="25" as="geometry" />
        </mxCell>
        <mxCell id="UGmz4RKePdPoEFrXLLEa-20" value="body: Panel" style="text;html=1;strokeColor=none;fillColor=none;align=left;verticalAlign=middle;spacingLeft=4;spacingRight=4;overflow=hidden;rotatable=0;points=[[0,0.5],[1,0.5]];portConstraint=eastwest;whiteSpace=wrap;" vertex="1" parent="UGmz4RKePdPoEFrXLLEa-17">
          <mxGeometry y="54" width="140" height="26" as="geometry" />
        </mxCell>
        <mxCell id="UGmz4RKePdPoEFrXLLEa-19" value="title header" style="text;html=1;strokeColor=none;fillColor=none;align=left;verticalAlign=middle;spacingLeft=4;spacingRight=4;overflow=hidden;rotatable=0;points=[[0,0.5],[1,0.5]];portConstraint=eastwest;whiteSpace=wrap;" vertex="1" parent="UGmz4RKePdPoEFrXLLEa-17">
          <mxGeometry y="80" width="140" height="25" as="geometry" />
        </mxCell>
        <mxCell id="UGmz4RKePdPoEFrXLLEa-21" value="Slider" style="html=1;whiteSpace=wrap;" vertex="1" parent="1">
          <mxGeometry x="450" y="260" width="60" height="40" as="geometry" />
        </mxCell>
        <mxCell id="UGmz4RKePdPoEFrXLLEa-22" value="header" style="html=1;whiteSpace=wrap;" vertex="1" parent="1">
          <mxGeometry x="520" y="309" width="60" height="30" as="geometry" />
        </mxCell>
        <mxCell id="UGmz4RKePdPoEFrXLLEa-23" value="Panel" style="html=1;whiteSpace=wrap;" vertex="1" parent="1">
          <mxGeometry x="580" y="250" width="70" height="30" as="geometry" />
        </mxCell>
        <mxCell id="UGmz4RKePdPoEFrXLLEa-24" value="" style="endArrow=diamondThin;endFill=1;endSize=24;html=1;rounded=0;exitX=0.647;exitY=-0.01;exitDx=0;exitDy=0;exitPerimeter=0;" edge="1" parent="1" source="UGmz4RKePdPoEFrXLLEa-21" target="UGmz4RKePdPoEFrXLLEa-17">
          <mxGeometry width="160" relative="1" as="geometry">
            <mxPoint x="300" y="270" as="sourcePoint" />
            <mxPoint x="460" y="270" as="targetPoint" />
          </mxGeometry>
        </mxCell>
        <mxCell id="UGmz4RKePdPoEFrXLLEa-26" value="" style="endArrow=diamondThin;endFill=1;endSize=24;html=1;rounded=0;exitX=0.373;exitY=0.113;exitDx=0;exitDy=0;exitPerimeter=0;entryX=0.523;entryY=1.056;entryDx=0;entryDy=0;entryPerimeter=0;" edge="1" parent="1" source="UGmz4RKePdPoEFrXLLEa-22" target="UGmz4RKePdPoEFrXLLEa-19">
          <mxGeometry width="160" relative="1" as="geometry">
            <mxPoint x="555" y="359" as="sourcePoint" />
            <mxPoint x="565" y="160" as="targetPoint" />
          </mxGeometry>
        </mxCell>
        <mxCell id="UGmz4RKePdPoEFrXLLEa-27" value="" style="endArrow=diamondThin;endFill=1;endSize=24;html=1;rounded=0;exitX=0.5;exitY=0;exitDx=0;exitDy=0;" edge="1" parent="1" source="UGmz4RKePdPoEFrXLLEa-23" target="UGmz4RKePdPoEFrXLLEa-17">
          <mxGeometry width="160" relative="1" as="geometry">
            <mxPoint x="1045" y="459" as="sourcePoint" />
            <mxPoint x="1055" y="260" as="targetPoint" />
          </mxGeometry>
        </mxCell>
      </root>
    </mxGraphModel>
  </diagram>
</mxfile>
